<mxfile host="app.diagrams.net" modified="2020-08-28T10:58:23.825Z" agent="5.0 (Macintosh; Intel Mac OS X 10_15_6) AppleWebKit/537.36 (KHTML, like Gecko) Chrome/85.0.4183.83 Safari/537.36" etag="83PJkEI-pOmpNfWp0R05" version="13.6.5" type="github">
  <diagram id="pJq_9nX_g4qXtEZlHWHQ" name="Page-1">
    <mxGraphModel dx="743" dy="523" grid="1" gridSize="10" guides="1" tooltips="1" connect="1" arrows="1" fold="1" page="1" pageScale="1" pageWidth="827" pageHeight="1169" math="0" shadow="0">
      <root>
        <mxCell id="0" />
        <mxCell id="1" parent="0" />
      </root>
    </mxGraphModel>
  </diagram>
</mxfile>
